<svg xmlns="http://www.w3.org/2000/svg" viewBox="0 0 861.29 964.46"><defs><style>.a{fill:#4284f3;}.b{fill:#3ddb83;}.c{fill:#083042;}.d{fill:#3870b1;}.e{fill:#37be6e;}.f{fill:#041619;}.g{fill:#fff;}.h{fill:#3c3f41;}</style></defs><path class="a" d="M1013,352.86a88.44,88.44,0,0,1,17.08,52.7q.06,190.65-.08,381.31c-.08,38.41-17.32,67.86-50.31,87.39q-164.1,97.17-328.5,193.83a96.45,96.45,0,0,1-56.86,13.24c6.26-2.27,6.14-7.34,6.13-12.82q-.16-83.24-.06-166.46c0-3-.25-6,.55-8.95.93-2.6,3.08-3.29,5.53-3.46,9.88-.72,18.7-4.32,27.14-9.34,64.74-38.49,129.73-76.55,194.53-114.93,15.94-9.44,26.19-22.83,29.84-41.12a48.41,48.41,0,0,0,.59-9.46q0-116.49.07-233a54.44,54.44,0,0,0-6.16-24.94c-1-1.93-2.22-3.74-2.34-6,.22-2.77,2.47-3.79,4.43-5q76.37-45.8,152.87-91.34C1009.12,353.57,1010.78,352.32,1013,352.86Z" transform="translate(-168.85 -117.13)"/><path class="b" d="M1013,352.86,910.57,413.93q-27.42,16.35-54.83,32.73c-1.7,1-3.32,2.18-5,3.28a1.23,1.23,0,0,1-1.39.15c-2.43-1.58-3.91-4.08-5.75-6.2-8.41-9.69-19.68-15.26-30.56-21.34-27-15.11-54-30.44-80.94-45.66q-49.61-28-99.19-56c-3.05-1.72-6-3.54-9.17-5.1-20.31-10-40.26-9.05-59.61,2.35-64.45,38-128.74,76.16-193.33,113.87a72.9,72.9,0,0,0-25.63,25.3c-2,.88-3.52-.43-5.08-1.3-29.92-16.62-59.75-33.43-89.63-50.13-21.47-12-42.87-24.12-64.39-36-2.56-1.41-5.56-2.33-7.06-5.21,7.36-17.13,19.58-29.94,35.47-39.32Q324.77,260.21,435.1,195.19c35.69-21.05,71.25-42.34,107.12-63.09,33.16-19.2,67.31-20.21,100.76-1.45,107.56,60.3,214.78,121.2,322.2,181.73,15.62,8.8,30.7,18.11,42,32.38C1009.27,347.36,1011.56,349.8,1013,352.86Z" transform="translate(-168.85 -117.13)"/><path class="c" d="M179,364.66q39.86,22.23,79.7,44.48,42.43,23.73,84.85,47.51a7.29,7.29,0,0,0,1.41.47,2.16,2.16,0,0,1,.34,1.62c-3.91,9.38-5,19.15-5,29.29q.21,120.14,0,240.28c0,15.64,6.39,27.19,19.91,34.88,35.17,20,70.46,39.77,105.66,59.7s70.15,39.64,105.25,59.42a53.81,53.81,0,0,0,23.64,7.32,14.92,14.92,0,0,1,6.73,1.67l.58.62q-.09,29.73-.15,59.47,0,60.72,0,121.45c0,7.84-.1,7.84-7.68,8.49-16.21-1.12-31.07-6.27-45.2-14.26q-172-97.29-344.17-194.37c-24-13.54-36.1-33.8-36.08-61.55q.15-200.88.07-401.76C168.92,393.75,171.76,378.68,179,364.66Z" transform="translate(-168.85 -117.13)"/><path class="d" d="M849.87,449.83c.3.05.6.09.9.11.74,2.78,2.63,5,3.75,7.56,3.27,7.48,5.6,15.1,5.58,23.54q-.23,116.2-.06,232.43c0,23.42-10.62,40.72-30.29,52.53-32.34,19.43-64.88,38.52-97.36,57.71q-50.22,29.67-100.51,59.23c-8.11,4.76-16.79,8-26.39,8.11a14.49,14.49,0,0,0-3.33.87l-.45.06c-1.28-1.71-1.3-3.73-1.31-5.73-.17-27.79-1.65-55.56-1-83.36,0-2.33-.14-4.67.64-6.92a4,4,0,0,1,3.56-2.37c9.92-1.23,18.12-6.49,26.42-11.4q60.66-35.87,121.4-71.6c14.11-8.3,21.27-20.43,21.22-37q-.21-73.73,0-147.45A55,55,0,0,0,767.61,502c.1-2.65,2.41-3.4,4.1-4.59,23.71-16.65,48.64-31.35,73.55-46.08C846.68,450.47,848,449.41,849.87,449.83Z" transform="translate(-168.85 -117.13)"/><path class="e" d="M849.87,449.83c-27.54,16.56-81.61,51.3-81.61,51.3a4.82,4.82,0,0,1-2.17-1.1c-7.21-10.2-18.12-15.4-28.55-21.29-38.13-21.51-76.46-42.66-114.25-64.76-18.15-10.61-34.75-10.63-52.87.51-39.71,24.39-80.14,47.63-120.33,71.24-8.18,4.8-15.48,10.36-20.11,18.87a4.26,4.26,0,0,1-1.78,1.71c-2,.46-3.51-.74-5-1.69-22.3-13.82-44.83-27.26-67.79-40-3.56-2-7.86-2.93-10.26-6.72a3.6,3.6,0,0,1-.11-.81c4.1-10.51,11.77-18,21.16-23.59q51.52-30.76,103.27-61.14c31.87-18.82,63.59-37.91,95.73-56.27,21.6-12.34,43.41-11,64.85,1.47,19.53,11.33,39.28,22.28,58.92,33.42q28.59,16.23,57.17,32.48C765.32,394.36,784.66,405,803.82,416c10.65,6.1,21.89,11.22,31.68,18.76A61.59,61.59,0,0,1,849.87,449.83Z" transform="translate(-168.85 -117.13)"/><path class="f" d="M345.11,457.93c27.13,14.25,53.44,29.9,79.42,46.13,1.12.69,3.4,2,3.4,2s.73,2.87.27,4.25c-1.78,5.31-1.78,10.79-1.78,16.3,0,52.27.12,104.55-.06,156.83,0,12.07,4.87,20.48,15.38,26.4q68.08,38.35,136.08,76.88a54.11,54.11,0,0,0,18.68,6.71c1.61.25,3.38.14,4.55,1.65.08,18.9-.19,37.8.35,56.69.39,13.41.84,26.8.31,40.2-18.09-.18-32.93-9.07-47.91-17.73-16.68-9.64-33.51-19-50.27-28.5q-32.73-18.54-65.45-37.1-25.38-14.32-50.81-28.57c-10.28-5.78-20.78-11.21-30.73-17.52-11.2-7.11-17.46-17.64-17.48-31.15q-.1-125.67,0-251.32C339.12,472.31,340.35,464.56,345.11,457.93Z" transform="translate(-168.85 -117.13)"/><path class="g" d="M768.09,501.53a3.79,3.79,0,0,1,.17-1,3.59,3.59,0,0,1-1.68-1c-7.22-10.2-18.13-15.41-28.56-21.29-38.12-21.51-76.46-42.66-114.25-64.76-18.14-10.61-34.75-10.63-52.87.5-39.71,24.4-80.14,47.63-120.33,71.24-8.17,4.8-15.48,10.37-20.11,18.88a4.23,4.23,0,0,1-1.78,1.7l-.2,0a9.58,9.58,0,0,1,.2,4c-1.78,5.31-1.78,10.78-1.78,16.29,0,52.28.12,104.56,0,156.83,0,12.08,4.86,20.49,15.37,26.4q68.08,38.37,136.08,76.88A53.92,53.92,0,0,0,597,793c1.5.23,3.12.17,4.28,1.36a4.67,4.67,0,0,1,2.8-1.21c9.92-1.23,18.12-6.48,26.42-11.4q60.66-35.87,121.4-71.6c14.11-8.29,21.27-20.42,21.22-37q-.2-73.73,0-147.46A55.07,55.07,0,0,0,768.09,501.53Z" transform="translate(-168.85 -117.13)"/><path class="h" d="M602.57,558.65l58.29-58.19a7.78,7.78,0,0,0,0-10.81l-12.49-12.47a7.81,7.81,0,0,0-10.83,0l-58.28,58.19Zm64.12,65.66L725,566.13a7.78,7.78,0,0,0,0-10.81l-12.49-12.47a7.8,7.8,0,0,0-10.82,0L643.37,601Zm-8.33,48.22a13.2,13.2,0,0,0,2.08-4.16,7.19,7.19,0,0,0-1.25-5.82c-.41-.41-.41-.83-.83-1.24l-.42-.42L540.54,543.68l-.42-.41c-1.24-1.67-3.74-2.08-5.41-2.08-2.5,0-4.16,1.25-5.83,2.49a9.62,9.62,0,0,0-2.91,2.91,7.44,7.44,0,0,0-1.67,2.08c-.83.83-1.24,1.66-2.08,2.49a14.82,14.82,0,0,0-2.08,3.33,13.09,13.09,0,0,0-2.08,4.16,45.88,45.88,0,0,1-2.5,4.57,29.24,29.24,0,0,0-2.08,5.4,36.45,36.45,0,0,0-2.08,6.23c-.83,2.5-1.25,5-2.08,7.07a58.23,58.23,0,0,0-1.67,8.31c-.41,2.91-1.25,6.24-1.66,9.15l-1.25,10c-.42,3.74-.42,7.48-.84,11.22V633c0,4.57,0,9.15.42,13.72.42,5,.42,10,.83,15,0,1.25.42,2.91.42,4.16h.83l-27.06,27a7.78,7.78,0,0,0,0,10.81l19.15,19.12a7.81,7.81,0,0,0,10.83,0l27.06-27c9.57.83,19.56,1.66,29.56,1.66a242.92,242.92,0,0,0,24.56-.83,162.27,162.27,0,0,0,20-2.49,97.56,97.56,0,0,0,15.82-3.74,104.58,104.58,0,0,0,12.08-4.57,58.69,58.69,0,0,0,8.74-4.57c3.75-2.5,7.49-5,10.41-8.32,0,.42.41,0,.83-.41Z" transform="translate(-168.85 -117.13)"/></svg>